<mxfile host="app.diagrams.net" modified="2023-11-12T14:02:53.091Z" agent="Mozilla/5.0 (Macintosh; Intel Mac OS X 10.15; rv:109.0) Gecko/20100101 Firefox/119.0" etag="dz-To4eF33xZ7GrP5gs6" version="22.1.0" type="github" pages="2">
  <diagram name="Ciphering INPUT" id="H01qffEKPcRhHBk7UTEL">
    <mxGraphModel dx="1444" dy="902" grid="0" gridSize="10" guides="1" tooltips="1" connect="1" arrows="1" fold="1" page="1" pageScale="1" pageWidth="850" pageHeight="1100" math="0" shadow="0">
      <root>
        <mxCell id="0" />
        <mxCell id="1" parent="0" />
        <mxCell id="PimdjZ6zKHFd7U6tgaEE-10" value="Käyttäjä" style="rounded=0;whiteSpace=wrap;html=1;rotation=-90;" parent="1" vertex="1">
          <mxGeometry x="22" y="190" width="120" height="60" as="geometry" />
        </mxCell>
        <mxCell id="PimdjZ6zKHFd7U6tgaEE-11" value="&lt;div&gt;Cipherer&lt;/div&gt;" style="rounded=0;whiteSpace=wrap;html=1;rotation=-90;" parent="1" vertex="1">
          <mxGeometry x="22" y="411" width="120" height="60" as="geometry" />
        </mxCell>
        <mxCell id="PimdjZ6zKHFd7U6tgaEE-17" value="" style="edgeStyle=orthogonalEdgeStyle;rounded=0;orthogonalLoop=1;jettySize=auto;html=1;" parent="1" source="PimdjZ6zKHFd7U6tgaEE-15" target="PimdjZ6zKHFd7U6tgaEE-16" edge="1">
          <mxGeometry relative="1" as="geometry" />
        </mxCell>
        <mxCell id="PimdjZ6zKHFd7U6tgaEE-15" value="" style="ellipse;whiteSpace=wrap;html=1;aspect=fixed;" parent="1" vertex="1">
          <mxGeometry x="142" y="202.25" width="35.5" height="35.5" as="geometry" />
        </mxCell>
        <mxCell id="PimdjZ6zKHFd7U6tgaEE-19" value="" style="edgeStyle=orthogonalEdgeStyle;rounded=0;orthogonalLoop=1;jettySize=auto;html=1;" parent="1" source="PimdjZ6zKHFd7U6tgaEE-16" target="PimdjZ6zKHFd7U6tgaEE-18" edge="1">
          <mxGeometry relative="1" as="geometry" />
        </mxCell>
        <mxCell id="PimdjZ6zKHFd7U6tgaEE-28" style="edgeStyle=orthogonalEdgeStyle;rounded=0;orthogonalLoop=1;jettySize=auto;html=1;exitX=1;exitY=0.5;exitDx=0;exitDy=0;entryX=0;entryY=0.5;entryDx=0;entryDy=0;" parent="1" source="PimdjZ6zKHFd7U6tgaEE-16" target="PimdjZ6zKHFd7U6tgaEE-20" edge="1">
          <mxGeometry relative="1" as="geometry" />
        </mxCell>
        <mxCell id="PimdjZ6zKHFd7U6tgaEE-16" value="&lt;div&gt;Put in input&lt;/div&gt;" style="whiteSpace=wrap;html=1;" parent="1" vertex="1">
          <mxGeometry x="215.25" y="190" width="120" height="60" as="geometry" />
        </mxCell>
        <mxCell id="PimdjZ6zKHFd7U6tgaEE-30" value="" style="edgeStyle=orthogonalEdgeStyle;rounded=0;orthogonalLoop=1;jettySize=auto;html=1;" parent="1" source="PimdjZ6zKHFd7U6tgaEE-18" target="PimdjZ6zKHFd7U6tgaEE-29" edge="1">
          <mxGeometry relative="1" as="geometry" />
        </mxCell>
        <mxCell id="PimdjZ6zKHFd7U6tgaEE-18" value="Get Ciphered input" style="whiteSpace=wrap;html=1;" parent="1" vertex="1">
          <mxGeometry x="415.25" y="142.25" width="120" height="60" as="geometry" />
        </mxCell>
        <mxCell id="PimdjZ6zKHFd7U6tgaEE-31" style="edgeStyle=orthogonalEdgeStyle;rounded=0;orthogonalLoop=1;jettySize=auto;html=1;exitX=1;exitY=0.5;exitDx=0;exitDy=0;entryX=0;entryY=0.5;entryDx=0;entryDy=0;" parent="1" source="PimdjZ6zKHFd7U6tgaEE-20" target="PimdjZ6zKHFd7U6tgaEE-29" edge="1">
          <mxGeometry relative="1" as="geometry" />
        </mxCell>
        <mxCell id="PimdjZ6zKHFd7U6tgaEE-45" style="edgeStyle=orthogonalEdgeStyle;rounded=0;orthogonalLoop=1;jettySize=auto;html=1;exitX=0.5;exitY=1;exitDx=0;exitDy=0;entryX=0.5;entryY=0;entryDx=0;entryDy=0;dashed=1;" parent="1" source="PimdjZ6zKHFd7U6tgaEE-20" target="PimdjZ6zKHFd7U6tgaEE-43" edge="1">
          <mxGeometry relative="1" as="geometry">
            <Array as="points">
              <mxPoint x="502" y="285" />
              <mxPoint x="502" y="494" />
              <mxPoint x="428" y="494" />
            </Array>
          </mxGeometry>
        </mxCell>
        <mxCell id="PimdjZ6zKHFd7U6tgaEE-20" value="&lt;div&gt;Get control key&lt;/div&gt;" style="whiteSpace=wrap;html=1;" parent="1" vertex="1">
          <mxGeometry x="415.25" y="225" width="120" height="60" as="geometry" />
        </mxCell>
        <mxCell id="PimdjZ6zKHFd7U6tgaEE-22" value="&lt;div&gt;Ciphering&lt;/div&gt;" style="text;html=1;strokeColor=none;fillColor=none;align=center;verticalAlign=middle;whiteSpace=wrap;rounded=0;fontSize=20;" parent="1" vertex="1">
          <mxGeometry x="82" y="47" width="60" height="30" as="geometry" />
        </mxCell>
        <mxCell id="PimdjZ6zKHFd7U6tgaEE-25" value="" style="edgeStyle=orthogonalEdgeStyle;rounded=0;orthogonalLoop=1;jettySize=auto;html=1;" parent="1" source="PimdjZ6zKHFd7U6tgaEE-23" target="PimdjZ6zKHFd7U6tgaEE-24" edge="1">
          <mxGeometry relative="1" as="geometry" />
        </mxCell>
        <mxCell id="PimdjZ6zKHFd7U6tgaEE-23" value="" style="ellipse;whiteSpace=wrap;html=1;aspect=fixed;" parent="1" vertex="1">
          <mxGeometry x="142" y="423.25" width="35.5" height="35.5" as="geometry" />
        </mxCell>
        <mxCell id="PimdjZ6zKHFd7U6tgaEE-27" value="" style="edgeStyle=orthogonalEdgeStyle;rounded=0;orthogonalLoop=1;jettySize=auto;html=1;" parent="1" source="PimdjZ6zKHFd7U6tgaEE-24" target="PimdjZ6zKHFd7U6tgaEE-26" edge="1">
          <mxGeometry relative="1" as="geometry" />
        </mxCell>
        <mxCell id="PimdjZ6zKHFd7U6tgaEE-24" value="Get input" style="whiteSpace=wrap;html=1;" parent="1" vertex="1">
          <mxGeometry x="215.25" y="411" width="120" height="60" as="geometry" />
        </mxCell>
        <mxCell id="PimdjZ6zKHFd7U6tgaEE-35" value="" style="edgeStyle=orthogonalEdgeStyle;rounded=0;orthogonalLoop=1;jettySize=auto;html=1;" parent="1" source="PimdjZ6zKHFd7U6tgaEE-26" target="PimdjZ6zKHFd7U6tgaEE-34" edge="1">
          <mxGeometry relative="1" as="geometry" />
        </mxCell>
        <mxCell id="PimdjZ6zKHFd7U6tgaEE-46" style="edgeStyle=orthogonalEdgeStyle;rounded=0;orthogonalLoop=1;jettySize=auto;html=1;exitX=0.5;exitY=1;exitDx=0;exitDy=0;entryX=0.5;entryY=0;entryDx=0;entryDy=0;dashed=1;" parent="1" source="PimdjZ6zKHFd7U6tgaEE-26" target="PimdjZ6zKHFd7U6tgaEE-43" edge="1">
          <mxGeometry relative="1" as="geometry" />
        </mxCell>
        <mxCell id="PimdjZ6zKHFd7U6tgaEE-26" value="Generate control key that chooses the table" style="whiteSpace=wrap;html=1;" parent="1" vertex="1">
          <mxGeometry x="368" y="411" width="120" height="60" as="geometry" />
        </mxCell>
        <mxCell id="PimdjZ6zKHFd7U6tgaEE-38" style="edgeStyle=orthogonalEdgeStyle;rounded=0;orthogonalLoop=1;jettySize=auto;html=1;exitX=0.5;exitY=1;exitDx=0;exitDy=0;entryX=0.5;entryY=0;entryDx=0;entryDy=0;dashed=1;" parent="1" source="PimdjZ6zKHFd7U6tgaEE-29" target="PimdjZ6zKHFd7U6tgaEE-36" edge="1">
          <mxGeometry relative="1" as="geometry" />
        </mxCell>
        <mxCell id="PimdjZ6zKHFd7U6tgaEE-37" value="" style="edgeStyle=orthogonalEdgeStyle;rounded=0;orthogonalLoop=1;jettySize=auto;html=1;" parent="1" source="PimdjZ6zKHFd7U6tgaEE-34" target="PimdjZ6zKHFd7U6tgaEE-36" edge="1">
          <mxGeometry relative="1" as="geometry" />
        </mxCell>
        <mxCell id="PimdjZ6zKHFd7U6tgaEE-34" value="Generate ciphered output based on control key" style="whiteSpace=wrap;html=1;" parent="1" vertex="1">
          <mxGeometry x="514" y="411" width="120" height="60" as="geometry" />
        </mxCell>
        <mxCell id="PimdjZ6zKHFd7U6tgaEE-39" value="&lt;div&gt;Background operations&lt;/div&gt;" style="rounded=0;whiteSpace=wrap;html=1;rotation=-90;" parent="1" vertex="1">
          <mxGeometry x="22" y="587" width="120" height="60" as="geometry" />
        </mxCell>
        <mxCell id="PimdjZ6zKHFd7U6tgaEE-44" value="" style="edgeStyle=orthogonalEdgeStyle;rounded=0;orthogonalLoop=1;jettySize=auto;html=1;" parent="1" source="PimdjZ6zKHFd7U6tgaEE-42" target="PimdjZ6zKHFd7U6tgaEE-43" edge="1">
          <mxGeometry relative="1" as="geometry" />
        </mxCell>
        <mxCell id="PimdjZ6zKHFd7U6tgaEE-42" value="" style="ellipse;whiteSpace=wrap;html=1;aspect=fixed;" parent="1" vertex="1">
          <mxGeometry x="142" y="599.25" width="35.5" height="35.5" as="geometry" />
        </mxCell>
        <mxCell id="PimdjZ6zKHFd7U6tgaEE-48" value="" style="edgeStyle=orthogonalEdgeStyle;rounded=0;orthogonalLoop=1;jettySize=auto;html=1;" parent="1" source="PimdjZ6zKHFd7U6tgaEE-43" target="PimdjZ6zKHFd7U6tgaEE-47" edge="1">
          <mxGeometry relative="1" as="geometry" />
        </mxCell>
        <mxCell id="PimdjZ6zKHFd7U6tgaEE-43" value="Generate control key" style="whiteSpace=wrap;html=1;" parent="1" vertex="1">
          <mxGeometry x="368" y="587" width="120" height="60" as="geometry" />
        </mxCell>
        <mxCell id="PimdjZ6zKHFd7U6tgaEE-50" value="" style="edgeStyle=orthogonalEdgeStyle;rounded=0;orthogonalLoop=1;jettySize=auto;html=1;" parent="1" source="PimdjZ6zKHFd7U6tgaEE-47" target="PimdjZ6zKHFd7U6tgaEE-49" edge="1">
          <mxGeometry relative="1" as="geometry">
            <Array as="points">
              <mxPoint x="508" y="701" />
              <mxPoint x="508" y="622" />
            </Array>
          </mxGeometry>
        </mxCell>
        <mxCell id="PimdjZ6zKHFd7U6tgaEE-47" value="Based on the generation, chooses the cipher table" style="whiteSpace=wrap;html=1;" parent="1" vertex="1">
          <mxGeometry x="368" y="671" width="120" height="60" as="geometry" />
        </mxCell>
        <mxCell id="l41JbqRs2AjtEYXPVDgg-4" style="edgeStyle=orthogonalEdgeStyle;rounded=0;orthogonalLoop=1;jettySize=auto;html=1;exitX=1;exitY=0.5;exitDx=0;exitDy=0;entryX=0;entryY=0.5;entryDx=0;entryDy=0;" edge="1" parent="1" source="PimdjZ6zKHFd7U6tgaEE-49" target="l41JbqRs2AjtEYXPVDgg-3">
          <mxGeometry relative="1" as="geometry" />
        </mxCell>
        <mxCell id="PimdjZ6zKHFd7U6tgaEE-49" value="Cipher the input based on the table" style="whiteSpace=wrap;html=1;" parent="1" vertex="1">
          <mxGeometry x="535.25" y="587" width="120" height="60" as="geometry" />
        </mxCell>
        <mxCell id="PimdjZ6zKHFd7U6tgaEE-51" value="" style="swimlane;startSize=0;" parent="1" vertex="1">
          <mxGeometry x="22" y="104" width="916" height="234" as="geometry" />
        </mxCell>
        <mxCell id="PimdjZ6zKHFd7U6tgaEE-29" value="&lt;div&gt;Print output,&amp;nbsp;&lt;/div&gt;&lt;div&gt;ciphered text &amp;amp;&amp;nbsp;&lt;/div&gt;&lt;div&gt;control key&lt;/div&gt;" style="shape=step;perimeter=stepPerimeter;whiteSpace=wrap;html=1;fixedSize=1;" parent="PimdjZ6zKHFd7U6tgaEE-51" vertex="1">
          <mxGeometry x="691" y="66" width="142" height="80" as="geometry" />
        </mxCell>
        <mxCell id="PimdjZ6zKHFd7U6tgaEE-32" value="" style="ellipse;whiteSpace=wrap;html=1;strokeWidth=2;" parent="PimdjZ6zKHFd7U6tgaEE-51" vertex="1">
          <mxGeometry x="869" y="88" width="36" height="36" as="geometry" />
        </mxCell>
        <mxCell id="PimdjZ6zKHFd7U6tgaEE-33" value="" style="edgeStyle=orthogonalEdgeStyle;rounded=0;orthogonalLoop=1;jettySize=auto;html=1;" parent="PimdjZ6zKHFd7U6tgaEE-51" source="PimdjZ6zKHFd7U6tgaEE-29" target="PimdjZ6zKHFd7U6tgaEE-32" edge="1">
          <mxGeometry relative="1" as="geometry" />
        </mxCell>
        <mxCell id="PimdjZ6zKHFd7U6tgaEE-52" value="" style="swimlane;startSize=0;" parent="1" vertex="1">
          <mxGeometry x="22" y="338" width="916" height="199" as="geometry" />
        </mxCell>
        <mxCell id="PimdjZ6zKHFd7U6tgaEE-57" value="" style="ellipse;whiteSpace=wrap;html=1;strokeWidth=2;" parent="PimdjZ6zKHFd7U6tgaEE-52" vertex="1">
          <mxGeometry x="866" y="84.75" width="36" height="36" as="geometry" />
        </mxCell>
        <mxCell id="PimdjZ6zKHFd7U6tgaEE-36" value="Print output" style="shape=step;perimeter=stepPerimeter;whiteSpace=wrap;html=1;fixedSize=1;" parent="PimdjZ6zKHFd7U6tgaEE-52" vertex="1">
          <mxGeometry x="702" y="63" width="120" height="80" as="geometry" />
        </mxCell>
        <mxCell id="PimdjZ6zKHFd7U6tgaEE-58" style="edgeStyle=orthogonalEdgeStyle;rounded=0;orthogonalLoop=1;jettySize=auto;html=1;exitX=1;exitY=0.5;exitDx=0;exitDy=0;entryX=0;entryY=0.5;entryDx=0;entryDy=0;" parent="PimdjZ6zKHFd7U6tgaEE-52" source="PimdjZ6zKHFd7U6tgaEE-36" target="PimdjZ6zKHFd7U6tgaEE-57" edge="1">
          <mxGeometry relative="1" as="geometry" />
        </mxCell>
        <mxCell id="l41JbqRs2AjtEYXPVDgg-3" value="" style="ellipse;whiteSpace=wrap;html=1;strokeWidth=2;" vertex="1" parent="1">
          <mxGeometry x="882" y="598.75" width="36" height="36" as="geometry" />
        </mxCell>
        <mxCell id="l41JbqRs2AjtEYXPVDgg-6" style="edgeStyle=orthogonalEdgeStyle;rounded=0;orthogonalLoop=1;jettySize=auto;html=1;exitX=0.5;exitY=1;exitDx=0;exitDy=0;entryX=1;entryY=0.5;entryDx=0;entryDy=0;endArrow=none;endFill=0;dashed=1;startArrow=classic;startFill=1;" edge="1" parent="1" source="PimdjZ6zKHFd7U6tgaEE-36" target="PimdjZ6zKHFd7U6tgaEE-49">
          <mxGeometry relative="1" as="geometry" />
        </mxCell>
        <mxCell id="l41JbqRs2AjtEYXPVDgg-7" value="" style="swimlane;startSize=0;" vertex="1" parent="1">
          <mxGeometry x="22" y="537" width="916" height="212" as="geometry" />
        </mxCell>
      </root>
    </mxGraphModel>
  </diagram>
  <diagram id="YLdwgkgvZQ-6aa7nvl3E" name="De ciphering">
    <mxGraphModel dx="934" dy="584" grid="0" gridSize="10" guides="1" tooltips="1" connect="1" arrows="1" fold="1" page="1" pageScale="1" pageWidth="850" pageHeight="1100" math="0" shadow="0">
      <root>
        <mxCell id="0" />
        <mxCell id="1" parent="0" />
        <mxCell id="Fw7eSF4Haps5QJptdpvV-1" value="Käyttäjä" style="rounded=0;whiteSpace=wrap;html=1;rotation=-90;" vertex="1" parent="1">
          <mxGeometry x="22" y="190" width="120" height="60" as="geometry" />
        </mxCell>
        <mxCell id="Fw7eSF4Haps5QJptdpvV-2" value="&lt;div&gt;Cipherer&lt;/div&gt;" style="rounded=0;whiteSpace=wrap;html=1;rotation=-90;" vertex="1" parent="1">
          <mxGeometry x="22" y="411" width="120" height="60" as="geometry" />
        </mxCell>
        <mxCell id="Fw7eSF4Haps5QJptdpvV-13" value="&lt;div&gt;De Ciphering&lt;/div&gt;" style="text;html=1;strokeColor=none;fillColor=none;align=center;verticalAlign=middle;whiteSpace=wrap;rounded=0;fontSize=20;" vertex="1" parent="1">
          <mxGeometry x="47" y="37" width="134" height="30" as="geometry" />
        </mxCell>
        <mxCell id="Fw7eSF4Haps5QJptdpvV-33" value="" style="swimlane;startSize=0;" vertex="1" parent="1">
          <mxGeometry x="22" y="104" width="1045" height="217" as="geometry">
            <mxRectangle x="22" y="104" width="50" height="44" as="alternateBounds" />
          </mxGeometry>
        </mxCell>
        <mxCell id="Fw7eSF4Haps5QJptdpvV-15" value="" style="ellipse;whiteSpace=wrap;html=1;aspect=fixed;" vertex="1" parent="Fw7eSF4Haps5QJptdpvV-33">
          <mxGeometry x="112" y="100.25" width="35.5" height="35.5" as="geometry" />
        </mxCell>
        <mxCell id="Fw7eSF4Haps5QJptdpvV-17" value="Put in input" style="whiteSpace=wrap;html=1;" vertex="1" parent="Fw7eSF4Haps5QJptdpvV-33">
          <mxGeometry x="185.25" y="88" width="120" height="60" as="geometry" />
        </mxCell>
        <mxCell id="Fw7eSF4Haps5QJptdpvV-14" value="" style="edgeStyle=orthogonalEdgeStyle;rounded=0;orthogonalLoop=1;jettySize=auto;html=1;" edge="1" parent="Fw7eSF4Haps5QJptdpvV-33" source="Fw7eSF4Haps5QJptdpvV-15" target="Fw7eSF4Haps5QJptdpvV-17">
          <mxGeometry relative="1" as="geometry" />
        </mxCell>
        <mxCell id="8GtHpHaaQcYNZrq8k5La-2" style="edgeStyle=orthogonalEdgeStyle;rounded=0;orthogonalLoop=1;jettySize=auto;html=1;exitX=1;exitY=0.5;exitDx=0;exitDy=0;entryX=0;entryY=0.5;entryDx=0;entryDy=0;" edge="1" parent="Fw7eSF4Haps5QJptdpvV-33" source="Fw7eSF4Haps5QJptdpvV-20" target="Fw7eSF4Haps5QJptdpvV-39">
          <mxGeometry relative="1" as="geometry" />
        </mxCell>
        <mxCell id="Fw7eSF4Haps5QJptdpvV-20" value="Put in control key" style="whiteSpace=wrap;html=1;" vertex="1" parent="Fw7eSF4Haps5QJptdpvV-33">
          <mxGeometry x="338" y="88" width="120" height="60" as="geometry" />
        </mxCell>
        <mxCell id="Fw7eSF4Haps5QJptdpvV-16" value="" style="edgeStyle=orthogonalEdgeStyle;rounded=0;orthogonalLoop=1;jettySize=auto;html=1;" edge="1" parent="Fw7eSF4Haps5QJptdpvV-33" source="Fw7eSF4Haps5QJptdpvV-17" target="Fw7eSF4Haps5QJptdpvV-20">
          <mxGeometry relative="1" as="geometry" />
        </mxCell>
        <mxCell id="Fw7eSF4Haps5QJptdpvV-38" value="" style="ellipse;whiteSpace=wrap;html=1;strokeWidth=2;" vertex="1" parent="Fw7eSF4Haps5QJptdpvV-33">
          <mxGeometry x="969" y="100.25" width="36" height="36" as="geometry" />
        </mxCell>
        <mxCell id="Fw7eSF4Haps5QJptdpvV-39" value="Print output" style="shape=step;perimeter=stepPerimeter;whiteSpace=wrap;html=1;fixedSize=1;" vertex="1" parent="Fw7eSF4Haps5QJptdpvV-33">
          <mxGeometry x="805" y="78" width="120" height="80" as="geometry" />
        </mxCell>
        <mxCell id="Fw7eSF4Haps5QJptdpvV-40" style="edgeStyle=orthogonalEdgeStyle;rounded=0;orthogonalLoop=1;jettySize=auto;html=1;exitX=1;exitY=0.5;exitDx=0;exitDy=0;entryX=0;entryY=0.5;entryDx=0;entryDy=0;" edge="1" parent="Fw7eSF4Haps5QJptdpvV-33" source="Fw7eSF4Haps5QJptdpvV-39" target="Fw7eSF4Haps5QJptdpvV-38">
          <mxGeometry relative="1" as="geometry" />
        </mxCell>
        <mxCell id="Fw7eSF4Haps5QJptdpvV-37" value="" style="swimlane;startSize=0;" vertex="1" parent="1">
          <mxGeometry x="22" y="322" width="1045" height="215" as="geometry">
            <mxRectangle x="22" y="338" width="50" height="44" as="alternateBounds" />
          </mxGeometry>
        </mxCell>
        <mxCell id="Fw7eSF4Haps5QJptdpvV-4" value="" style="ellipse;whiteSpace=wrap;html=1;aspect=fixed;" vertex="1" parent="Fw7eSF4Haps5QJptdpvV-37">
          <mxGeometry x="116" y="96.25" width="35.5" height="35.5" as="geometry" />
        </mxCell>
        <mxCell id="Fw7eSF4Haps5QJptdpvV-7" value="&lt;div&gt;Put in input&lt;/div&gt;" style="whiteSpace=wrap;html=1;" vertex="1" parent="Fw7eSF4Haps5QJptdpvV-37">
          <mxGeometry x="189.25" y="84" width="120" height="60" as="geometry" />
        </mxCell>
        <mxCell id="Fw7eSF4Haps5QJptdpvV-3" value="" style="edgeStyle=orthogonalEdgeStyle;rounded=0;orthogonalLoop=1;jettySize=auto;html=1;" edge="1" parent="Fw7eSF4Haps5QJptdpvV-37" source="Fw7eSF4Haps5QJptdpvV-4" target="Fw7eSF4Haps5QJptdpvV-7">
          <mxGeometry relative="1" as="geometry" />
        </mxCell>
        <mxCell id="Fw7eSF4Haps5QJptdpvV-34" value="&lt;div&gt;Print out given&lt;/div&gt;&lt;div&gt;output based on&lt;/div&gt;&lt;div&gt;parameters&lt;br&gt;&lt;/div&gt;" style="shape=step;perimeter=stepPerimeter;whiteSpace=wrap;html=1;fixedSize=1;" vertex="1" parent="Fw7eSF4Haps5QJptdpvV-37">
          <mxGeometry x="800" y="64" width="142" height="80" as="geometry" />
        </mxCell>
        <mxCell id="Fw7eSF4Haps5QJptdpvV-35" value="" style="ellipse;whiteSpace=wrap;html=1;strokeWidth=2;" vertex="1" parent="Fw7eSF4Haps5QJptdpvV-37">
          <mxGeometry x="978" y="86" width="36" height="36" as="geometry" />
        </mxCell>
        <mxCell id="Fw7eSF4Haps5QJptdpvV-36" value="" style="edgeStyle=orthogonalEdgeStyle;rounded=0;orthogonalLoop=1;jettySize=auto;html=1;" edge="1" parent="Fw7eSF4Haps5QJptdpvV-37" source="Fw7eSF4Haps5QJptdpvV-34" target="Fw7eSF4Haps5QJptdpvV-35">
          <mxGeometry relative="1" as="geometry" />
        </mxCell>
        <mxCell id="Fw7eSF4Haps5QJptdpvV-45" value="If Control key" style="rhombus;whiteSpace=wrap;html=1;" vertex="1" parent="Fw7eSF4Haps5QJptdpvV-37">
          <mxGeometry x="345" y="69" width="95" height="90" as="geometry" />
        </mxCell>
        <mxCell id="Fw7eSF4Haps5QJptdpvV-46" value="" style="edgeStyle=orthogonalEdgeStyle;rounded=0;orthogonalLoop=1;jettySize=auto;html=1;" edge="1" parent="Fw7eSF4Haps5QJptdpvV-37" source="Fw7eSF4Haps5QJptdpvV-7" target="Fw7eSF4Haps5QJptdpvV-45">
          <mxGeometry relative="1" as="geometry" />
        </mxCell>
        <mxCell id="Fw7eSF4Haps5QJptdpvV-55" style="edgeStyle=orthogonalEdgeStyle;rounded=0;orthogonalLoop=1;jettySize=auto;html=1;exitX=1;exitY=0.5;exitDx=0;exitDy=0;" edge="1" parent="Fw7eSF4Haps5QJptdpvV-37" source="Fw7eSF4Haps5QJptdpvV-47" target="Fw7eSF4Haps5QJptdpvV-34">
          <mxGeometry relative="1" as="geometry">
            <Array as="points">
              <mxPoint x="628" y="39" />
              <mxPoint x="628" y="104" />
            </Array>
          </mxGeometry>
        </mxCell>
        <mxCell id="Fw7eSF4Haps5QJptdpvV-47" value="De cipher the input" style="whiteSpace=wrap;html=1;" vertex="1" parent="Fw7eSF4Haps5QJptdpvV-37">
          <mxGeometry x="450" y="9" width="120" height="60" as="geometry" />
        </mxCell>
        <mxCell id="Fw7eSF4Haps5QJptdpvV-48" value="" style="edgeStyle=orthogonalEdgeStyle;rounded=0;orthogonalLoop=1;jettySize=auto;html=1;verticalAlign=top;" edge="1" parent="Fw7eSF4Haps5QJptdpvV-37" source="Fw7eSF4Haps5QJptdpvV-45" target="Fw7eSF4Haps5QJptdpvV-47">
          <mxGeometry relative="1" as="geometry">
            <Array as="points">
              <mxPoint x="393" y="39" />
            </Array>
          </mxGeometry>
        </mxCell>
        <mxCell id="Fw7eSF4Haps5QJptdpvV-49" value="True" style="edgeLabel;html=1;align=center;verticalAlign=bottom;resizable=0;points=[];" vertex="1" connectable="0" parent="Fw7eSF4Haps5QJptdpvV-48">
          <mxGeometry x="0.0171" y="-1" relative="1" as="geometry">
            <mxPoint x="1" y="-1" as="offset" />
          </mxGeometry>
        </mxCell>
        <mxCell id="Fw7eSF4Haps5QJptdpvV-54" style="edgeStyle=orthogonalEdgeStyle;rounded=0;orthogonalLoop=1;jettySize=auto;html=1;exitX=1;exitY=0.5;exitDx=0;exitDy=0;entryX=0;entryY=0.5;entryDx=0;entryDy=0;" edge="1" parent="Fw7eSF4Haps5QJptdpvV-37" source="Fw7eSF4Haps5QJptdpvV-50" target="Fw7eSF4Haps5QJptdpvV-34">
          <mxGeometry relative="1" as="geometry">
            <Array as="points">
              <mxPoint x="628" y="176" />
              <mxPoint x="628" y="104" />
            </Array>
          </mxGeometry>
        </mxCell>
        <mxCell id="Fw7eSF4Haps5QJptdpvV-50" value="Return error / cipher the text once again" style="whiteSpace=wrap;html=1;" vertex="1" parent="Fw7eSF4Haps5QJptdpvV-37">
          <mxGeometry x="448" y="146" width="120" height="60" as="geometry" />
        </mxCell>
        <mxCell id="Fw7eSF4Haps5QJptdpvV-51" value="" style="edgeStyle=orthogonalEdgeStyle;rounded=0;orthogonalLoop=1;jettySize=auto;html=1;verticalAlign=bottom;" edge="1" parent="Fw7eSF4Haps5QJptdpvV-37" source="Fw7eSF4Haps5QJptdpvV-45" target="Fw7eSF4Haps5QJptdpvV-50">
          <mxGeometry relative="1" as="geometry">
            <Array as="points">
              <mxPoint x="393" y="179" />
            </Array>
          </mxGeometry>
        </mxCell>
        <mxCell id="Fw7eSF4Haps5QJptdpvV-53" value="False" style="edgeLabel;html=1;align=center;verticalAlign=middle;resizable=0;points=[];" vertex="1" connectable="0" parent="Fw7eSF4Haps5QJptdpvV-51">
          <mxGeometry x="0.1258" y="-3" relative="1" as="geometry">
            <mxPoint x="-3" y="10" as="offset" />
          </mxGeometry>
        </mxCell>
        <mxCell id="Fw7eSF4Haps5QJptdpvV-43" value="" style="swimlane;startSize=0;" vertex="1" parent="1">
          <mxGeometry x="22" y="537" width="1045" height="309" as="geometry">
            <mxRectangle x="22" y="537" width="50" height="44" as="alternateBounds" />
          </mxGeometry>
        </mxCell>
        <mxCell id="Fw7eSF4Haps5QJptdpvV-25" value="" style="edgeStyle=orthogonalEdgeStyle;rounded=0;orthogonalLoop=1;jettySize=auto;html=1;" edge="1" parent="Fw7eSF4Haps5QJptdpvV-43" source="Fw7eSF4Haps5QJptdpvV-26" target="Fw7eSF4Haps5QJptdpvV-28">
          <mxGeometry relative="1" as="geometry" />
        </mxCell>
        <mxCell id="Fw7eSF4Haps5QJptdpvV-26" value="" style="ellipse;whiteSpace=wrap;html=1;aspect=fixed;" vertex="1" parent="Fw7eSF4Haps5QJptdpvV-43">
          <mxGeometry x="119" y="101.5" width="35.5" height="35.5" as="geometry" />
        </mxCell>
        <mxCell id="mmulB8MmDmSS_hUeAiU6-4" value="" style="edgeStyle=orthogonalEdgeStyle;rounded=0;orthogonalLoop=1;jettySize=auto;html=1;" edge="1" parent="Fw7eSF4Haps5QJptdpvV-43" source="mmulB8MmDmSS_hUeAiU6-1" target="mmulB8MmDmSS_hUeAiU6-3">
          <mxGeometry relative="1" as="geometry">
            <Array as="points">
              <mxPoint x="524" y="202" />
            </Array>
          </mxGeometry>
        </mxCell>
        <mxCell id="mmulB8MmDmSS_hUeAiU6-10" value="Doesnt match" style="edgeLabel;html=1;align=center;verticalAlign=top;resizable=0;points=[];" vertex="1" connectable="0" parent="mmulB8MmDmSS_hUeAiU6-4">
          <mxGeometry x="0.1603" y="1" relative="1" as="geometry">
            <mxPoint as="offset" />
          </mxGeometry>
        </mxCell>
        <mxCell id="mmulB8MmDmSS_hUeAiU6-8" style="edgeStyle=orthogonalEdgeStyle;rounded=0;orthogonalLoop=1;jettySize=auto;html=1;exitX=0.5;exitY=0;exitDx=0;exitDy=0;entryX=0;entryY=0.5;entryDx=0;entryDy=0;" edge="1" parent="Fw7eSF4Haps5QJptdpvV-43" source="mmulB8MmDmSS_hUeAiU6-1" target="mmulB8MmDmSS_hUeAiU6-7">
          <mxGeometry relative="1" as="geometry" />
        </mxCell>
        <mxCell id="mmulB8MmDmSS_hUeAiU6-9" value="Match" style="edgeLabel;html=1;align=center;verticalAlign=bottom;resizable=0;points=[];" vertex="1" connectable="0" parent="mmulB8MmDmSS_hUeAiU6-8">
          <mxGeometry x="0.0244" relative="1" as="geometry">
            <mxPoint as="offset" />
          </mxGeometry>
        </mxCell>
        <mxCell id="mmulB8MmDmSS_hUeAiU6-1" value="&lt;div&gt;Control key&lt;/div&gt;" style="rhombus;whiteSpace=wrap;html=1;" vertex="1" parent="Fw7eSF4Haps5QJptdpvV-43">
          <mxGeometry x="484" y="79" width="80" height="80" as="geometry" />
        </mxCell>
        <mxCell id="Fw7eSF4Haps5QJptdpvV-28" value="&lt;div&gt;Check control key&lt;/div&gt;&lt;div&gt;with array of control keys&lt;br&gt;&lt;/div&gt;" style="whiteSpace=wrap;html=1;" vertex="1" parent="Fw7eSF4Haps5QJptdpvV-43">
          <mxGeometry x="333" y="89" width="120" height="60" as="geometry" />
        </mxCell>
        <mxCell id="mmulB8MmDmSS_hUeAiU6-2" value="" style="edgeStyle=orthogonalEdgeStyle;rounded=0;orthogonalLoop=1;jettySize=auto;html=1;" edge="1" parent="Fw7eSF4Haps5QJptdpvV-43" source="Fw7eSF4Haps5QJptdpvV-28" target="mmulB8MmDmSS_hUeAiU6-1">
          <mxGeometry relative="1" as="geometry" />
        </mxCell>
        <mxCell id="Fw7eSF4Haps5QJptdpvV-24" value="&lt;div&gt;Background operations&lt;/div&gt;" style="rounded=0;whiteSpace=wrap;html=1;rotation=-90;" vertex="1" parent="Fw7eSF4Haps5QJptdpvV-43">
          <mxGeometry y="89.25" width="120" height="60" as="geometry" />
        </mxCell>
        <mxCell id="mmulB8MmDmSS_hUeAiU6-18" style="edgeStyle=orthogonalEdgeStyle;rounded=0;orthogonalLoop=1;jettySize=auto;html=1;exitX=1;exitY=0.5;exitDx=0;exitDy=0;entryX=0;entryY=0.5;entryDx=0;entryDy=0;" edge="1" parent="Fw7eSF4Haps5QJptdpvV-43" source="mmulB8MmDmSS_hUeAiU6-3" target="Fw7eSF4Haps5QJptdpvV-32">
          <mxGeometry relative="1" as="geometry" />
        </mxCell>
        <mxCell id="mmulB8MmDmSS_hUeAiU6-3" value="Returns error message" style="whiteSpace=wrap;html=1;" vertex="1" parent="Fw7eSF4Haps5QJptdpvV-43">
          <mxGeometry x="595" y="174" width="120" height="60" as="geometry" />
        </mxCell>
        <mxCell id="mmulB8MmDmSS_hUeAiU6-16" style="edgeStyle=orthogonalEdgeStyle;rounded=0;orthogonalLoop=1;jettySize=auto;html=1;exitX=1;exitY=0.5;exitDx=0;exitDy=0;entryX=0;entryY=0.5;entryDx=0;entryDy=0;" edge="1" parent="Fw7eSF4Haps5QJptdpvV-43" source="mmulB8MmDmSS_hUeAiU6-7" target="Fw7eSF4Haps5QJptdpvV-32">
          <mxGeometry relative="1" as="geometry" />
        </mxCell>
        <mxCell id="mmulB8MmDmSS_hUeAiU6-7" value="Use the same table that matches the key" style="rounded=0;whiteSpace=wrap;html=1;" vertex="1" parent="Fw7eSF4Haps5QJptdpvV-43">
          <mxGeometry x="595" y="13" width="120" height="60" as="geometry" />
        </mxCell>
        <mxCell id="Fw7eSF4Haps5QJptdpvV-41" value="" style="ellipse;whiteSpace=wrap;html=1;strokeWidth=2;" vertex="1" parent="Fw7eSF4Haps5QJptdpvV-43">
          <mxGeometry x="978" y="108" width="36" height="36" as="geometry" />
        </mxCell>
        <mxCell id="Fw7eSF4Haps5QJptdpvV-32" value="Print out the output" style="whiteSpace=wrap;html=1;" vertex="1" parent="Fw7eSF4Haps5QJptdpvV-43">
          <mxGeometry x="814" y="96" width="120" height="60" as="geometry" />
        </mxCell>
        <mxCell id="Fw7eSF4Haps5QJptdpvV-31" style="edgeStyle=orthogonalEdgeStyle;rounded=0;orthogonalLoop=1;jettySize=auto;html=1;exitX=1;exitY=0.5;exitDx=0;exitDy=0;entryX=0;entryY=0.5;entryDx=0;entryDy=0;" edge="1" parent="Fw7eSF4Haps5QJptdpvV-43" source="Fw7eSF4Haps5QJptdpvV-32" target="Fw7eSF4Haps5QJptdpvV-41">
          <mxGeometry relative="1" as="geometry" />
        </mxCell>
        <mxCell id="8GtHpHaaQcYNZrq8k5La-1" style="edgeStyle=orthogonalEdgeStyle;rounded=0;orthogonalLoop=1;jettySize=auto;html=1;exitX=0.5;exitY=1;exitDx=0;exitDy=0;entryX=0;entryY=0.5;entryDx=0;entryDy=0;dashed=1;" edge="1" parent="1" source="Fw7eSF4Haps5QJptdpvV-20" target="Fw7eSF4Haps5QJptdpvV-45">
          <mxGeometry relative="1" as="geometry">
            <Array as="points">
              <mxPoint x="417" y="252" />
              <mxPoint x="417" y="339" />
              <mxPoint x="367" y="339" />
            </Array>
          </mxGeometry>
        </mxCell>
        <mxCell id="mmulB8MmDmSS_hUeAiU6-13" style="edgeStyle=orthogonalEdgeStyle;rounded=0;orthogonalLoop=1;jettySize=auto;html=1;exitX=0.5;exitY=1;exitDx=0;exitDy=0;entryX=0.5;entryY=0;entryDx=0;entryDy=0;dashed=1;" edge="1" parent="1" source="Fw7eSF4Haps5QJptdpvV-50" target="mmulB8MmDmSS_hUeAiU6-3">
          <mxGeometry relative="1" as="geometry">
            <Array as="points">
              <mxPoint x="499" y="528" />
              <mxPoint x="499" y="624" />
              <mxPoint x="677" y="624" />
            </Array>
          </mxGeometry>
        </mxCell>
        <mxCell id="mmulB8MmDmSS_hUeAiU6-15" style="edgeStyle=orthogonalEdgeStyle;rounded=0;orthogonalLoop=1;jettySize=auto;html=1;exitX=1;exitY=0.25;exitDx=0;exitDy=0;dashed=1;" edge="1" parent="1" source="Fw7eSF4Haps5QJptdpvV-47" target="mmulB8MmDmSS_hUeAiU6-7">
          <mxGeometry relative="1" as="geometry" />
        </mxCell>
      </root>
    </mxGraphModel>
  </diagram>
</mxfile>
